<?xml version="1.0" standalone="no"?>
<svg xmlns="http://www.w3.org/2000/svg" xmlns:xlink="http://www.w3.org/1999/xlink" width="226pt" height="336pt" viewBox="0.00 0.00 226.36 336">
<g id="graph0" class="graph" transform="translate(24.957960748180824,307.6051830408129) scale(0.8145075630702187)" data-name="G">

<polygon fill="white" stroke="none" points="-4,4 -4,-332 222.36,-332 222.36,4 -4,4"/>
<!-- drive -->
<g id="node1" class="node" pointer-events="visible" data-name="drive">

<ellipse fill="none" stroke="black" cx="110.92" cy="-310" rx="30.76" ry="18"/>
<text text-anchor="middle" x="110.92" y="-305.8" font-family="Times,serif" font-size="14.00">drive</text>
</g>
<!-- idle -->
<g id="node2" class="node" pointer-events="visible" data-name="idle">

<ellipse fill="none" stroke="black" cx="110.92" cy="-164" rx="27" ry="18"/>
<text text-anchor="middle" x="110.92" y="-159.8" font-family="Times,serif" font-size="14.00">idle</text>
</g>
<!-- drive&#45;&gt;idle -->
<g id="edge1" class="edge" data-name="drive-&gt;idle">

<path fill="none" stroke="black" d="M106.37,-291.92C103.79,-267.56 103.48,-222.55 105.43,-193.21"/>
<polygon fill="black" stroke="black" points="108.89,-193.83 106.24,-183.57 101.92,-193.24 108.89,-193.83"/>
<text text-anchor="middle" x="42.95" y="-275.33" font-family="Times,serif" font-size="14.00">throttle input </text>
<text text-anchor="middle" x="42.95" y="-258.53" font-family="Times,serif" font-size="14.00"> or </text>
<text text-anchor="middle" x="42.95" y="-241.73" font-family="Times,serif" font-size="14.00"> speed achived </text>
<text text-anchor="middle" x="42.95" y="-224.93" font-family="Times,serif" font-size="14.00"> or </text>
<text text-anchor="middle" x="42.95" y="-208.13" font-family="Times,serif" font-size="14.00"> energy empty</text>
</g>
<!-- idle&#45;&gt;drive -->
<g id="edge2" class="edge" data-name="idle-&gt;drive">

<path fill="none" stroke="black" d="M115.47,-182.06C118.05,-206.41 118.36,-251.41 116.41,-280.77"/>
<polygon fill="black" stroke="black" points="112.95,-280.15 115.6,-290.41 119.93,-280.74 112.95,-280.15"/>
<text text-anchor="middle" x="178.88" y="-240.65" font-family="Times,serif" font-size="14.00">throttle input </text>
<text text-anchor="middle" x="178.88" y="-223.85" font-family="Times,serif" font-size="14.00"> and </text>
<text text-anchor="middle" x="178.88" y="-207.05" font-family="Times,serif" font-size="14.00"> no motion</text>
</g>
<!-- brake -->
<g id="node3" class="node" pointer-events="visible" data-name="brake">

<ellipse fill="none" stroke="black" cx="110.92" cy="-18" rx="32.46" ry="18"/>
<text text-anchor="middle" x="110.92" y="-13.8" font-family="Times,serif" font-size="14.00">brake</text>
</g>
<!-- idle&#45;&gt;brake -->
<g id="edge3" class="edge" data-name="idle-&gt;brake">

<path fill="none" stroke="black" d="M106.37,-145.92C103.79,-121.56 103.48,-76.55 105.43,-47.21"/>
<polygon fill="black" stroke="black" points="108.89,-47.83 106.24,-37.57 101.92,-47.24 108.89,-47.83"/>
<text text-anchor="middle" x="42.95" y="-112.53" font-family="Times,serif" font-size="14.00">throttle input </text>
<text text-anchor="middle" x="42.95" y="-95.73" font-family="Times,serif" font-size="14.00"> and </text>
<text text-anchor="middle" x="42.95" y="-78.93" font-family="Times,serif" font-size="14.00"> in motion</text>
</g>
<!-- brake&#45;&gt;idle -->
<g id="edge4" class="edge" data-name="brake-&gt;idle">

<path fill="none" stroke="black" d="M115.47,-36.06C118.05,-60.41 118.36,-105.41 116.41,-134.77"/>
<polygon fill="black" stroke="black" points="112.95,-134.15 115.6,-144.41 119.93,-134.74 112.95,-134.15"/>
<text text-anchor="middle" x="178.88" y="-111.45" font-family="Times,serif" font-size="14.00">throttle input </text>
<text text-anchor="middle" x="178.88" y="-94.65" font-family="Times,serif" font-size="14.00"> or </text>
<text text-anchor="middle" x="178.88" y="-77.85" font-family="Times,serif" font-size="14.00"> standing still </text>
<text text-anchor="middle" x="178.88" y="-61.05" font-family="Times,serif" font-size="14.00"> or </text>
<text text-anchor="middle" x="178.88" y="-44.25" font-family="Times,serif" font-size="14.00"> energy full</text>
</g>
</g>
</svg>