<?xml version="1.0" standalone="no"?>
<svg xmlns="http://www.w3.org/2000/svg" xmlns:xlink="http://www.w3.org/1999/xlink" width="234pt" height="188pt" viewBox="0.00 0.00 233.53 188">
<g id="graph0" class="graph" transform="translate(27.769612203320996,152.5096898015827) scale(0.6830201283771986)" data-name="G">

<polygon fill="white" stroke="none" points="-4,4 -4,-184 229.53,-184 229.53,4 -4,4"/>
<!-- main -->
<g id="node1" class="node" pointer-events="visible" data-name="drive" data-comment="main">

<ellipse fill="none" stroke="black" cx="114.32" cy="-162" rx="30.76" ry="18"/>
<text text-anchor="middle" x="114.32" y="-157.8" font-family="Times,serif" font-size="14.00">drive</text>
</g>
<!-- parse -->

<!-- main&#45;&gt;parse -->

<!-- init -->
<g id="node2" class="node" pointer-events="visible" data-name="init">

<ellipse fill="none" stroke="black" cx="114.32" cy="-90" rx="27" ry="18"/>
<text text-anchor="middle" x="114.32" y="-85.8" font-family="Times,serif" font-size="14.00">init</text>
</g><g id="edge2" class="edge" data-name="init-&gt;drive" data-comment="init">

<path fill="none" stroke="black" d="M120.18,-107.79C120.98,-115.25 121.24,-124.24 120.96,-132.69"/>
<polygon fill="black" stroke="black" points="117.47,-132.33 120.3,-142.54 124.46,-132.8 117.47,-132.33"/>
<text text-anchor="middle" x="187.43" y="-137.16" font-family="Times,serif" font-size="14.00">no motion </text>
<text text-anchor="middle" x="187.43" y="-120.36" font-family="Times,serif" font-size="14.00"> and </text>
<text text-anchor="middle" x="187.43" y="-103.56" font-family="Times,serif" font-size="14.00"> throttle input</text>
</g><g id="node3" class="node" pointer-events="visible" data-name="brake" data-comment="init">

<ellipse fill="none" stroke="black" cx="114.32" cy="-18" rx="32.46" ry="18"/>
<text text-anchor="middle" x="114.32" y="-13.8" font-family="Times,serif" font-size="14.00">brake</text>
</g><g id="edge1" class="edge" data-name="drive-&gt;init" data-comment="init">

<path fill="none" stroke="black" d="M108.44,-144.05C107.64,-136.57 107.39,-127.58 107.68,-119.14"/>
<polygon fill="black" stroke="black" points="111.17,-119.51 108.35,-109.3 104.18,-119.04 111.17,-119.51"/>
<text text-anchor="middle" x="41.2" y="-139.81" font-family="Times,serif" font-size="14.00">speed achived </text>
<text text-anchor="middle" x="41.2" y="-123.01" font-family="Times,serif" font-size="14.00"> or </text>
<text text-anchor="middle" x="41.2" y="-106.21" font-family="Times,serif" font-size="14.00"> energy empty</text>
</g>
<!-- main&#45;&gt;init -->
<g id="edge3" class="edge" data-name="init-&gt;brake" data-comment="main-&gt;init">

<path fill="none" stroke="black" d="M108.44,-72.05C107.64,-64.57 107.39,-55.58 107.68,-47.14"/>
<polygon fill="black" stroke="black" points="111.17,-47.51 108.35,-37.3 104.18,-47.04 111.17,-47.51"/>
<text text-anchor="middle" x="41.2" y="-67.81" font-family="Times,serif" font-size="14.00">in motion </text>
<text text-anchor="middle" x="41.2" y="-51.01" font-family="Times,serif" font-size="14.00"> and </text>
<text text-anchor="middle" x="41.2" y="-34.21" font-family="Times,serif" font-size="14.00"> throttle input</text>
</g>
<!-- cleanup -->

<!-- main&#45;&gt;cleanup -->
<g id="edge4" class="edge" data-name="brake-&gt;init" data-comment="main-&gt;cleanup">

<path fill="none" stroke="black" d="M120.18,-35.79C120.98,-43.25 121.24,-52.24 120.96,-60.69"/>
<polygon fill="black" stroke="black" points="117.47,-60.33 120.3,-70.54 124.46,-60.8 117.47,-60.33"/>
<text text-anchor="middle" x="187.43" y="-65.16" font-family="Times,serif" font-size="14.00">standing still </text>
<text text-anchor="middle" x="187.43" y="-48.36" font-family="Times,serif" font-size="14.00"> or </text>
<text text-anchor="middle" x="187.43" y="-31.56" font-family="Times,serif" font-size="14.00"> energy full</text>
</g>
</g>
</svg>