<?xml version="1.0" standalone="no"?>
<svg xmlns="http://www.w3.org/2000/svg" xmlns:xlink="http://www.w3.org/1999/xlink" width="236pt" height="336pt" viewBox="0.00 0.00 235.7 336.00">
<g id="graph0" class="graph" transform="translate(2.052551732154882,304.994425504282) scale(0.8705505632961241)" data-name="G">

<polygon fill="white" stroke="none" points="-4,4 -4,-332 231.7,-332 231.7,4 -4,4"/>
<!-- drive -->
<g id="node1" class="node" pointer-events="visible" data-name="drive">

<ellipse fill="none" stroke="black" cx="113.85" cy="-310" rx="30.76" ry="18"/>
<text text-anchor="middle" x="113.85" y="-305.8" font-family="Times,serif" font-size="14.00">drive</text>
</g>
<!-- idle -->
<g id="node2" class="node" pointer-events="visible" data-name="idle">

<ellipse fill="none" stroke="black" cx="113.85" cy="-164" rx="27" ry="18"/>
<text text-anchor="middle" x="113.85" y="-159.8" font-family="Times,serif" font-size="14.00">idle</text>
</g>
<!-- drive&#45;&gt;idle -->
<g id="edge1" class="edge" data-name="drive-&gt;idle">

<path fill="none" stroke="black" d="M109.3,-291.92C106.72,-267.56 106.41,-222.55 108.36,-193.21"/>
<polygon fill="black" stroke="black" points="111.82,-193.83 109.17,-183.57 104.85,-193.24 111.82,-193.83"/>
<text text-anchor="middle" x="45.88" y="-258.53" font-family="Times,serif" font-size="14.00">unpressed input </text>
<text text-anchor="middle" x="45.88" y="-241.73" font-family="Times,serif" font-size="14.00"> or </text>
<text text-anchor="middle" x="45.88" y="-224.93" font-family="Times,serif" font-size="14.00"> speed achived</text>
</g>
<!-- idle&#45;&gt;drive -->
<g id="edge2" class="edge" data-name="idle-&gt;drive">

<path fill="none" stroke="black" d="M118.4,-182.06C120.98,-206.41 121.29,-251.41 119.34,-280.77"/>
<polygon fill="black" stroke="black" points="115.88,-280.15 118.53,-290.41 122.85,-280.74 115.88,-280.15"/>
<text text-anchor="middle" x="181.81" y="-240.65" font-family="Times,serif" font-size="14.00">pressed input </text>
<text text-anchor="middle" x="181.81" y="-223.85" font-family="Times,serif" font-size="14.00"> and </text>
<text text-anchor="middle" x="181.81" y="-207.05" font-family="Times,serif" font-size="14.00"> no motion</text>
</g>
<!-- brake -->
<g id="node3" class="node" pointer-events="visible" data-name="brake">

<ellipse fill="none" stroke="black" cx="113.85" cy="-18" rx="32.46" ry="18"/>
<text text-anchor="middle" x="113.85" y="-13.8" font-family="Times,serif" font-size="14.00">brake</text>
</g>
<!-- idle&#45;&gt;brake -->
<g id="edge3" class="edge" data-name="idle-&gt;brake">

<path fill="none" stroke="black" d="M109.3,-145.92C106.72,-121.56 106.41,-76.55 108.36,-47.21"/>
<polygon fill="black" stroke="black" points="111.82,-47.83 109.17,-37.57 104.85,-47.24 111.82,-47.83"/>
<text text-anchor="middle" x="45.88" y="-112.53" font-family="Times,serif" font-size="14.00">pressed input </text>
<text text-anchor="middle" x="45.88" y="-95.73" font-family="Times,serif" font-size="14.00"> and </text>
<text text-anchor="middle" x="45.88" y="-78.93" font-family="Times,serif" font-size="14.00"> in motion</text>
</g>
<!-- brake&#45;&gt;idle -->
<g id="edge4" class="edge" data-name="brake-&gt;idle">

<path fill="none" stroke="black" d="M118.4,-36.06C120.98,-60.41 121.29,-105.41 119.34,-134.77"/>
<polygon fill="black" stroke="black" points="115.88,-134.15 118.53,-144.41 122.85,-134.74 115.88,-134.15"/>
<text text-anchor="middle" x="181.81" y="-94.65" font-family="Times,serif" font-size="14.00">unpressed input </text>
<text text-anchor="middle" x="181.81" y="-77.85" font-family="Times,serif" font-size="14.00"> and </text>
<text text-anchor="middle" x="181.81" y="-61.05" font-family="Times,serif" font-size="14.00"> standing still</text>
</g>
</g>
</svg>